<svg id="Layer_1" data-name="Layer 1" xmlns="http://www.w3.org/2000/svg" viewBox="0 0 343.61 69.17"><defs><style>.cls-1{fill:#efba1c;}</style></defs><path class="cls-1" d="M178.08,81.5l-7.83,7.83-7.83-7.83,7.83-7.82ZM197,62.61,210.33,76l7.83-7.83L197,47,175.78,68.14,183.61,76Zm26.72,11.13-7.82,7.83,7.82,7.83,7.83-7.83ZM197,100.47,183.61,87.1l-7.83,7.83L197,116.12l21.19-21.19-7.83-7.83Zm0-11.14,7.83-7.83L197,73.68l-7.83,7.82Zm82.33.74v-.13c0-5.06-2.7-7.63-7.09-9.31a8.83,8.83,0,0,0,5-8.17v-.13c0-5.94-4.79-9.79-12.49-9.79H247.11V100.4h18C273.7,100.47,279.3,97,279.3,90.07ZM268.91,73.88c0,2.83-2.3,4-6,4h-7.69v-8h8.23c3.51,0,5.47,1.42,5.47,3.91Zm2.16,15.18c0,2.84-2.23,4.12-5.87,4.12h-9.92V84.81h9.65c4.25,0,6.14,1.55,6.14,4.12Zm25.71,11.41V62.61h-8.37v37.86Zm44.8,0V62.61h-8.23V86L315.6,62.61h-7.69v37.86h8.23V76.37l18.36,24.1Zm46.16,0L371.48,62.34h-7.69l-16.27,38.13H356L359.47,92h16l3.44,8.51ZM372.63,84.61H362.57l5.06-12.28Zm54.86,15.86V62.61h-8.24V86L401.51,62.61h-7.7v37.86h8.24V76.37l18.35,24.1Zm43.05-6.15L465.21,89c-3,2.7-5.6,4.46-10,4.46-6.48,0-11-5.4-11-11.88v-.13c0-6.48,4.59-11.81,11-11.81,3.78,0,6.75,1.62,9.72,4.25l5.33-6.14c-3.51-3.44-7.76-5.87-14.91-5.87a19.29,19.29,0,0,0-19.77,19.57v.13A19.15,19.15,0,0,0,455,101.07C462.31,101.14,466.63,98.51,470.54,94.32Zm35.5,6.15V93H485.45v-8h17.89V77.66H485.45V70h20.32V62.54H477.22V100.4H506Z" transform="translate(-162.42 -46.95)"/></svg>