<svg id="Layer_1" data-name="Layer 1" xmlns="http://www.w3.org/2000/svg" viewBox="0 0 316.32 38.4"><defs><style>.cls-1,.cls-2{fill:#231f20;}.cls-2{fill-rule:evenodd;}.cls-3{fill:#3fbb96;}</style></defs><path class="cls-1" d="M449.38,97a.38.38,0,0,1-.28.64h-8.42a.39.39,0,0,1-.28-.12L429.21,85.71,417.9,97.55a.43.43,0,0,1-.28.11H409.2a.38.38,0,0,1-.28-.64l15.43-16.17L409.44,65.14a.38.38,0,0,1,.28-.65h8.42a.36.36,0,0,1,.28.12L429.13,76l10.75-11.38a.36.36,0,0,1,.28-.12h8.42a.38.38,0,0,1,.28.65L434,80.85Z" transform="translate(-177.84 -59.27)"/><path class="cls-1" d="M369.55,97.66a.53.53,0,0,1-.53-.53V65a.53.53,0,0,1,.53-.53h31.81a.54.54,0,0,1,.54.53v4.6a.54.54,0,0,1-.54.53H376.73v7.39H391.5a.53.53,0,0,1,.53.53v4.6a.53.53,0,0,1-.53.53H376.73v8.23h24.95a.54.54,0,0,1,.54.53v5.17a.53.53,0,0,1-.54.53Z" transform="translate(-177.84 -59.27)"/><path class="cls-1" d="M313.22,97.66a.53.53,0,0,1-.54-.53V65a.54.54,0,0,1,.54-.53h6.65a.53.53,0,0,1,.53.53V97.13a.53.53,0,0,1-.53.53Z" transform="translate(-177.84 -59.27)"/><path class="cls-1" d="M275.4,97.66a.53.53,0,0,1-.54-.53V65a.54.54,0,0,1,.54-.53h31.42a.54.54,0,0,1,.54.53v4.72a.54.54,0,0,1-.54.54H282.58V79H296a.54.54,0,0,1,.54.53v5a.54.54,0,0,1-.54.53H282.58V97.13a.53.53,0,0,1-.54.53Z" transform="translate(-177.84 -59.27)"/><path class="cls-1" d="M254.76,70.41V97.13a.52.52,0,0,1-.53.53h-6.65a.53.53,0,0,1-.53-.53V70.41H232.88a.53.53,0,0,1-.53-.54V65a.53.53,0,0,1,.53-.53H269a.53.53,0,0,1,.53.53v4.85a.54.54,0,0,1-.53.54Z" transform="translate(-177.84 -59.27)"/><path class="cls-1" d="M219.83,97.66a.53.53,0,0,1-.53-.53V65a.53.53,0,0,1,.53-.53h6.65A.54.54,0,0,1,227,65V97.13a.53.53,0,0,1-.54.53Z" transform="translate(-177.84 -59.27)"/><path class="cls-2" d="M177.84,65a.53.53,0,0,1,.53-.53h28.41a6.93,6.93,0,0,1,6.93,6.93v2.21a6.93,6.93,0,0,1-6.93,6.93H207A6.93,6.93,0,0,1,214,87.49v3.25A6.92,6.92,0,0,1,207,97.66H178.37a.53.53,0,0,1-.53-.53Zm7.58,4.87h18a3.2,3.2,0,0,1,3.2,3.2V74.6a3.2,3.2,0,0,1-3.2,3.2h-18Zm0,13.37h18.15a3.2,3.2,0,0,1,3.2,3.2v2a3.19,3.19,0,0,1-3.2,3.19H185.42Z" transform="translate(-177.84 -59.27)"/><path class="cls-1" d="M325.73,97.13V65a.53.53,0,0,1,.53-.53h4.54a.54.54,0,0,1,.35.13l25.59,22.66V65a.54.54,0,0,1,.54-.53h5.87a.54.54,0,0,1,.54.53V97.13a.53.53,0,0,1-.54.53h-4.53a.53.53,0,0,1-.36-.13L332.67,74.82V97.13a.53.53,0,0,1-.53.53h-5.88A.53.53,0,0,1,325.73,97.13Z" transform="translate(-177.84 -59.27)"/><path class="cls-3" d="M455.79,84.31a21.58,21.58,0,0,1,6.65-16.19c10.23-10.22,31.52-8.79,31.64-8.78C494,59.43,478.46,82,460,84.11A33.39,33.39,0,0,1,455.79,84.31Z" transform="translate(-177.84 -59.27)"/><path class="cls-3" d="M458,91.26a13.43,13.43,0,0,0,1.87,2.34c6.32,6.32,17.72,5.14,25.48-2.62,10.26-10.25,8.78-31.64,8.78-31.64s-11.21,25.14-28.95,30.6A31.1,31.1,0,0,1,458,91.26Z" transform="translate(-177.84 -59.27)"/></svg>