<svg id="Layer_1" data-name="Layer 1" xmlns="http://www.w3.org/2000/svg" xmlns:xlink="http://www.w3.org/1999/xlink" viewBox="0 0 341.56 80.95"><defs><style>.cls-1{fill:none;}.cls-2{clip-path:url(#clip-path);}.cls-3{fill:#1f3240;}.cls-4{fill:#060406;}.cls-5{fill:#416eb5;}.cls-6{fill:#fff;}</style><clipPath id="clip-path" transform="translate(-163.18 -41.06)"><rect class="cls-1" x="163.18" y="41.07" width="341.55" height="80.94"/></clipPath></defs><g class="cls-2"><path class="cls-3" d="M298.53,61.3a10.25,10.25,0,0,0-2.62-1.91,8.82,8.82,0,0,0-1.48-.64l.32-.16a6.92,6.92,0,0,0,1.71-1.22,7.78,7.78,0,0,0,1.85-3.08,12.17,12.17,0,0,0,.58-3.84,10.75,10.75,0,0,0-.62-3.69A7.68,7.68,0,0,0,296.46,44c-1.76-1.71-4.72-2.88-8.69-2.88H266.93v37h22.34a14.64,14.64,0,0,0,5.13-.83A10.06,10.06,0,0,0,298,74.94a8.33,8.33,0,0,0,1.92-3.1,11.55,11.55,0,0,0,.69-4,12.86,12.86,0,0,0-.51-3.7A7.11,7.11,0,0,0,298.53,61.3Zm-8.2,8.58a3.67,3.67,0,0,1-1.36.63,7.77,7.77,0,0,1-2,.23H275.61v-7.5h11.47a5,5,0,0,1,3.17.94,2.76,2.76,0,0,1,.87,1.26,5.2,5.2,0,0,1,.28,1.79,4.48,4.48,0,0,1-.26,1.58A2.59,2.59,0,0,1,290.33,69.88Zm-1-19.45a4.71,4.71,0,0,1,.32,1.7,5.49,5.49,0,0,1-.32,1.92,3.33,3.33,0,0,1-.81,1.25,2.87,2.87,0,0,1-1.05.62,3.86,3.86,0,0,1-1.31.2H275.61V48.39h9.83a7.07,7.07,0,0,1,1.89.2,3.12,3.12,0,0,1,1.26.63,3.2,3.2,0,0,1,.8,1.22Z" transform="translate(-163.18 -41.06)"/><path class="cls-3" d="M307.55,78.09h9v-37h-9Z" transform="translate(-163.18 -41.06)"/><path class="cls-3" d="M322,48.7h11.73V78.09h9V48.7h11.78V41.07H322Z" transform="translate(-163.18 -41.06)"/><path class="cls-3" d="M357.76,48.7h11.72V78.09h9V48.7h11.78V41.07H357.76Z" transform="translate(-163.18 -41.06)"/><path class="cls-3" d="M425.94,58.86a13.25,13.25,0,0,0,1.39-6.54,17,17,0,0,0-.4-4,9.22,9.22,0,0,0-1.28-3,7.87,7.87,0,0,0-3.51-3.17,13.48,13.48,0,0,0-5.84-1.11H395.73v37h8.73v-14h8.71l7,14h9.95l-8.51-15.76a7.07,7.07,0,0,0,2.49-1.3A7.14,7.14,0,0,0,425.94,58.86Zm-7.79-3.31a1.64,1.64,0,0,1-.41.5,3.07,3.07,0,0,1-1.12.54,6.53,6.53,0,0,1-1.65.19H404.51V48.7h10a6.06,6.06,0,0,1,2.45.42,2.62,2.62,0,0,1,.75.49,2.51,2.51,0,0,1,.52.69,2.15,2.15,0,0,1,.14.45A11,11,0,0,1,418.6,53a9.34,9.34,0,0,1-.13,1.4A5.67,5.67,0,0,1,418.15,55.55Z" transform="translate(-163.18 -41.06)"/><path class="cls-4" d="M425.94,58.86Z" transform="translate(-163.18 -41.06)"/><path class="cls-3" d="M444.45,63.49h19.07V55.67H444.45V48.84h19.8V41.07H435.76v37h28.72V70.37h-20Z" transform="translate(-163.18 -41.06)"/><path class="cls-5" d="M504.68,89.52H267.13V122H504.68Z" transform="translate(-163.18 -41.06)"/><path class="cls-6" d="M352.81,114.79l-.19-1.69c-1,1.12-2.35,1.94-5.25,1.94a7.93,7.93,0,0,1-6.41-2.67c-1-1.23-1.72-3.53-1.72-6.57,0-2.62.3-4.57,1.65-6.39,1.16-1.58,3.35-2.92,7-2.92,3.84,0,6,1.25,7.12,3.17a6.67,6.67,0,0,1,.87,3.3H352a3.13,3.13,0,0,0-.9-2,4.28,4.28,0,0,0-1.45-.87,4.37,4.37,0,0,0-1.68-.25,4.49,4.49,0,0,0-3.51,1.26c-.78.85-1.19,2.35-1.19,4.82s.39,3.77,1.12,4.68A4.78,4.78,0,0,0,348,111.9c2.31,0,3.95-1.17,4.27-2.65v-1.67H347.1v-3.24h8.84v5.57c0,2.22,0,4.8,0,4.86Z" transform="translate(-163.18 -41.06)"/><path class="cls-6" d="M358.58,114.79v-18h4v14.68h9v3.35Z" transform="translate(-163.18 -41.06)"/><path class="cls-6" d="M387.8,99.38c1.05,1.4,1.53,3.47,1.53,6.28a11.27,11.27,0,0,1-1.6,6.51c-1.25,1.87-3.65,2.87-7.19,2.87s-5.84-1-7.15-2.83c-1.11-1.53-1.64-3.67-1.64-6.5,0-2.67.48-4.75,1.55-6.16,1.36-1.88,3.59-3.06,7.24-3.06S386.43,97.51,387.8,99.38Zm-3.68,11.12c.87-.87,1.24-2.76,1.24-4.75s-.37-3.79-1.12-4.58a4.52,4.52,0,0,0-3.7-1.4,4.23,4.23,0,0,0-3.65,1.42c-.71.8-1.12,2.65-1.12,4.59s.45,3.9,1.36,4.81a4.39,4.39,0,0,0,3.44,1.21A4.53,4.53,0,0,0,384.12,110.5Z" transform="translate(-163.18 -41.06)"/><path class="cls-6" d="M402.72,114.79H391.79v-18H402a6,6,0,0,1,4.18,1.36,4.12,4.12,0,0,1,1.14,3.08,4.58,4.58,0,0,1-1.14,3.28,3.76,3.76,0,0,1-1.73.91,4.84,4.84,0,0,1,2.76,1.39,4.48,4.48,0,0,1,1,3.11,4.84,4.84,0,0,1-1.23,3.38A5.62,5.62,0,0,1,402.72,114.79Zm-.18-14.38a2.6,2.6,0,0,0-1.73-.48h-5.16v4.36h5.54a1.84,1.84,0,0,0,1.36-.48,2.37,2.37,0,0,0,.64-1.76,2.22,2.22,0,0,0-.16-.88,2.33,2.33,0,0,0-.48-.76Zm1.49,9.18a2.09,2.09,0,0,0-.14-.93,2,2,0,0,0-.52-.78,2.8,2.8,0,0,0-1.74-.53h-6v4.25h5.93a3,3,0,0,0,1.81-.48,1.86,1.86,0,0,0,.64-1.53Z" transform="translate(-163.18 -41.06)"/><path class="cls-6" d="M413,114.79h-4l7-18h5l6.6,18h-4.11l-1.53-4.24h-7.27Zm5.77-13.05-.41-1.49-.45,1.51-2.06,5.52h4.84Z" transform="translate(-163.18 -41.06)"/><path class="cls-6" d="M429.18,114.79v-18h4v14.68h9v3.35Z" transform="translate(-163.18 -41.06)"/><path class="cls-5" d="M244.12,98.53V41.07H186.65v17h10.5V51.56h36.47V88h-13V64.55H163.18V122h57.46V105H210.15v6.49H173.67V75h13V98.53Zm-34-10.5h-13V75h13Z" transform="translate(-163.18 -41.06)"/><path class="cls-3" d="M491.2,58.79l-3.92-5.6-8.15-12.12H468.72l12.79,18.32-13.59,18.7h10.17l.2-.29,8.06-11.61,8,11.9h10.37Z" transform="translate(-163.18 -41.06)"/><path class="cls-5" d="M493.18,47.45h5.16v5h6.39V41.07H493.3v6.38Z" transform="translate(-163.18 -41.06)"/></g></svg>