<svg id="Layer_1" data-name="Layer 1" xmlns="http://www.w3.org/2000/svg" viewBox="0 0 356.17 63.62"><defs><style>.cls-1{fill:#231f20;}</style></defs><path class="cls-1" d="M223.49,64a22.58,22.58,0,0,0-23,23c0,13.15,9.85,22.89,23,22.89s23.22-9.91,23.22-23S236.86,64,223.49,64Zm.09,36.38c-7.37,0-12.77-5.72-12.77-13.4s5.32-13.49,12.68-13.49,12.86,5.8,12.86,13.49S231,100.34,223.58,100.34Zm26-26.38H256v35h10.28V64.82H249.54Zm-75-.52a11.69,11.69,0,0,1,11.31,8.29h10.88c-2-10.59-10.71-17.77-22.1-17.77a22.59,22.59,0,0,0-23,23c0,13.15,9.85,22.88,23,22.88,11.14,0,20.05-7.17,22-17.85h-10.8a11.58,11.58,0,0,1-11.23,8.37c-7.45,0-12.68-5.72-12.68-13.4S167.12,73.44,174.57,73.44Zm270.32,9.23-7.54-1.11c-3.6-.51-6.17-1.71-6.17-4.53,0-3.07,3.34-4.61,7.88-4.61,5,0,8.14,2.13,8.83,5.64h9.94c-1.12-8.89-8-14.09-18.51-14.09-10.88,0-18.08,5.55-18.08,13.4,0,7.52,4.72,11.88,14.22,13.24L443,91.72c3.69.51,5.74,2,5.74,4.7,0,3.5-3.59,5-8.56,5-6.09,0-9.51-2.48-10-6.23H420c.95,8.62,7.71,14.68,20,14.68,11.23,0,18.68-5.12,18.68-13.92C458.77,88.05,453.37,84,444.89,82.67Zm-183.78-36a6.49,6.49,0,1,0,6.6,6.49A6.36,6.36,0,0,0,261.11,46.63ZM412,79.93c0-9.56-5.83-16-18.17-16-11.65,0-18.16,5.89-19.45,14.94h10.2c.52-3.5,3.26-6.4,9.08-6.4,5.23,0,7.8,2.3,7.8,5.12,0,3.67-4.71,4.61-10.54,5.21-7.88.85-17.65,3.59-17.65,13.83,0,8,5.92,13.07,15.34,13.07,7.37,0,12-3.07,14.31-7.94.34,4.35,3.6,7.17,8.14,7.17h6V99.83H412V79.93ZM401.88,91c0,5.89-5.14,10.25-11.4,10.25-3.86,0-7.11-1.63-7.11-5,0-4.36,5.23-5.55,10-6.06,4.63-.43,7.2-1.46,8.49-3.42ZM347.3,64a18,18,0,0,0-14,6.41V46.2H323.05V109h10.11v-5.81a17.82,17.82,0,0,0,14.14,6.66c12.34,0,21.68-9.73,21.68-22.88S359.47,64,347.3,64Zm-1.54,36.38c-7.37,0-12.77-5.72-12.77-13.4s5.48-13.49,12.85-13.49,12.68,5.72,12.68,13.49S353.13,100.34,345.76,100.34ZM298.46,64c-6.68,0-11,2.73-13.62,6.58V64.82h-10.2V109h10.28V85c0-6.75,4.29-11.53,10.63-11.53,5.91,0,9.59,4.19,9.59,10.25V109h10.28v-26C315.43,71.82,309.69,64,298.46,64ZM507.78,85.49c0-12.64-9.26-21.52-21.68-21.52-13.19,0-22.88,9.9-22.88,23,0,13.75,10.37,22.88,23,22.88,10.71,0,19.11-6.32,21.25-15.28H496.81c-1.54,3.93-5.31,6.15-10.37,6.15-6.6,0-11.57-4.1-12.68-11.28h34V85.49Zm-33.42-3.42c1.63-6.15,6.26-9.14,11.57-9.14,5.82,0,10.28,3.33,11.31,9.14Z" transform="translate(-151.61 -46.2)"/></svg>