<svg id="Layer_1" data-name="Layer 1" xmlns="http://www.w3.org/2000/svg" xmlns:xlink="http://www.w3.org/1999/xlink" viewBox="0 0 250 74.07"><defs><style>.cls-1{fill:none;}.cls-2{clip-path:url(#clip-path);}.cls-3{fill:#242741;}.cls-3,.cls-4{fill-rule:evenodd;}.cls-4{fill:#4a7abd;}</style><clipPath id="clip-path" transform="translate(-203.84 -41.07)"><rect class="cls-1" x="203.84" y="41.07" width="260.24" height="74.07"/></clipPath></defs><g class="cls-2"><path class="cls-3" d="M295.77,60.16V81.42h-21V62.89a2.73,2.73,0,0,0-2.74-2.73H265v50.67a2.74,2.74,0,0,0,2.74,2.73h7.08V90h21v20.83a2.74,2.74,0,0,0,2.74,2.73h7.08V62.89a2.73,2.73,0,0,0-2.73-2.73Z" transform="translate(-203.84 -41.07)"/><path class="cls-3" d="M337,72.75V98.06a6.48,6.48,0,0,1-3.16,5.63,7.33,7.33,0,0,1-11.32-6.09V75.48a2.73,2.73,0,0,0-2.73-2.73h-7.12V98.5a15.11,15.11,0,0,0,15.08,15.06h4A15.1,15.1,0,0,0,346.81,98.5v-23a2.74,2.74,0,0,0-2.74-2.73Z" transform="translate(-203.84 -41.07)"/><path class="cls-4" d="M446.18,113.56h7.08V77.72A2.73,2.73,0,0,0,450.52,75h-7.08v35.84A2.74,2.74,0,0,0,446.18,113.56Z" transform="translate(-203.84 -41.07)"/><path class="cls-4" d="M448.35,71.1a5.48,5.48,0,1,0-5.48-5.47A5.47,5.47,0,0,0,448.35,71.1Z" transform="translate(-203.84 -41.07)"/><path class="cls-3" d="M381.36,96.62c0,4.87-4,8.11-8.85,8.11s-8.86-3.24-8.86-8.11v-7c0-4.87,4-8.11,8.86-8.11s8.85,3.24,8.85,8.11Zm-8.85-23.9c-10.3,0-18.73,7.37-18.73,17.66V96c0,10.29,8.43,17.61,18.73,17.61s18.72-7.32,18.72-17.61V90.38C391.23,80.09,382.81,72.72,372.51,72.72Z" transform="translate(-203.84 -41.07)"/><path class="cls-4" d="M425.93,96.62c0,4.87-4,8.11-8.85,8.11s-8.86-3.24-8.86-8.11v-7c0-4.87,4-8.11,8.86-8.11s8.85,3.24,8.85,8.11Zm-8.85-23.9a20.08,20.08,0,0,0-8.91,2V62.85a2.74,2.74,0,0,0-2.74-2.74h-7.08V96c0,10.29,8.43,17.61,18.73,17.61S435.8,106.24,435.8,96V90.38C435.8,80.09,427.38,72.72,417.08,72.72Z" transform="translate(-203.84 -41.07)"/><path class="cls-3" d="M235.57,63.86c0-10.63-5.18-19.78-9.12-22.76,0,0-.31-.17-.28.26h0c-.32,20.54-10.82,26.1-16.59,33.6-13.32,17.3-.93,36.27,11.68,39.78,7.05,2-1.63-3.48-2.75-15C217.15,85.93,235.57,75.34,235.57,63.86Z" transform="translate(-203.84 -41.07)"/><path class="cls-4" d="M241.62,70.85c-.08,0-.19-.09-.27,0-.22,2.59-2.86,8.12-6.21,13.19-11.36,17.23-4.88,25.53-1.24,30,2.11,2.59,0,0,5.28-2.65A23.78,23.78,0,0,0,250.55,93,26.63,26.63,0,0,0,241.62,70.85Z" transform="translate(-203.84 -41.07)"/></g></svg>