<svg id="Layer_1" data-name="Layer 1" xmlns="http://www.w3.org/2000/svg" viewBox="0 0 372.78 59.61"><defs><style>.cls-1{fill:#5955a4;}</style></defs><path class="cls-1" d="M187.62,51.5a35.8,35.8,0,0,0-35.8,35.81v15.35a5.12,5.12,0,0,0,10.24,0V87.31a5.11,5.11,0,1,1,10.22,0v15.35a5.12,5.12,0,0,0,10.23,0V87.31a5.12,5.12,0,1,1,10.23,0v15.35a5.11,5.11,0,0,0,10.22,0V87.31a5.12,5.12,0,1,1,10.24,0v15.35a5.11,5.11,0,0,0,10.22,0V87.31A35.8,35.8,0,0,0,187.62,51.5Z" transform="translate(-151.82 -50.14)"/><path class="cls-1" d="M231.46,51.51h9.09V75.4l24.24-23.89h12.08L255.25,72.42l22.83,35.33H266L248.31,79.13l-7.76,7.51v21.12h-9.09Z" transform="translate(-151.82 -50.14)"/><path class="cls-1" d="M283,51.51h9v9.71q1.1-2.84,5.41-6.9a14.05,14.05,0,0,1,9.93-4.08c.17,0,.47,0,.89.06s1.13.1,2.15.21v10a12.12,12.12,0,0,0-1.55-.21c-.47,0-1-.05-1.54-.05q-7.16,0-11,4.59a16,16,0,0,0-3.84,10.58v32.36H283Z" transform="translate(-151.82 -50.14)"/><path class="cls-1" d="M345.59,73.71c2.17-.27,3.63-1.18,4.36-2.72a8.35,8.35,0,0,0,.63-3.64c0-3.23-1.14-5.57-3.43-7s-5.56-2.18-9.83-2.18q-7.4,0-10.48,4a13.31,13.31,0,0,0-2.25,6.59h-8.83q.27-10.41,6.74-14.51a27.72,27.72,0,0,1,15-4.08q9.93,0,16.1,3.78t6.14,11.77v32.4a4.12,4.12,0,0,0,.61,2.36q.58.9,2.55.9c.42,0,.89,0,1.42-.08s1.09-.13,1.68-.24v7a27.7,27.7,0,0,1-3.35.79,25.61,25.61,0,0,1-3.16.16c-3.25,0-5.62-1.16-7.09-3.47a13.51,13.51,0,0,1-1.62-5.2,23.89,23.89,0,0,1-8.3,6.56,25.63,25.63,0,0,1-11.92,2.79c-5.21,0-9.48-1.58-12.78-4.75a15.73,15.73,0,0,1-5-11.87q0-7.82,4.88-12.12a23.37,23.37,0,0,1,12.81-5.3Zm-19.9,25.54a11.12,11.12,0,0,0,7.09,2.36,21.62,21.62,0,0,0,9.67-2.31q7.86-3.83,7.87-12.53V79.16A15.92,15.92,0,0,1,345.86,81a39.61,39.61,0,0,1-5.34,1l-5.71.73a22.07,22.07,0,0,0-7.72,2.14,8.36,8.36,0,0,0-4.39,7.86A7.78,7.78,0,0,0,325.69,99.25Z" transform="translate(-151.82 -50.14)"/><path class="cls-1" d="M381.27,51.51V75.4l24.24-23.89h12.07L396,72.42l22.83,35.33H406.71L389,79.13l-7.76,7.51v21.12h-9.09V51.51Z" transform="translate(-151.82 -50.14)"/><path class="cls-1" d="M457.35,53.05a21.21,21.21,0,0,1,8.5,7.28,25.22,25.22,0,0,1,3.76,9.93,64.92,64.92,0,0,1,.84,12.39H429.54q.27,8.58,4,13.77c2.5,3.45,6.38,5.19,11.62,5.19A15,15,0,0,0,456.9,96.7a16.72,16.72,0,0,0,3.47-6.59h9.3a19.52,19.52,0,0,1-2.45,6.9,24.75,24.75,0,0,1-4.62,6.23A21.84,21.84,0,0,1,452,108.91a32,32,0,0,1-7.67.84,23.5,23.5,0,0,1-17.69-7.64q-7.25-7.65-7.25-21.4,0-13.54,7.31-22t19.11-8.46A25.41,25.41,0,0,1,457.35,53.05Zm3.38,22.09a24.52,24.52,0,0,0-2.66-9.81q-3.84-6.82-12.86-6.83a14.15,14.15,0,0,0-10.82,4.7,17.87,17.87,0,0,0-4.64,11.94Z" transform="translate(-151.82 -50.14)"/><path class="cls-1" d="M487.73,51.51v8a25.22,25.22,0,0,1,8.46-7.09,22.48,22.48,0,0,1,9.92-2.16q12,0,16.18,8.36,2.31,4.56,2.31,13.08v36.08H515V72.31a19.13,19.13,0,0,0-1.53-8.3q-2.52-5.23-9.13-5.24a18.52,18.52,0,0,0-5.52.68A14.26,14.26,0,0,0,492,64.07a13.83,13.83,0,0,0-3.07,5.75,39,39,0,0,0-.7,8.48v29.46h-9.46V51.51Z" transform="translate(-151.82 -50.14)"/></svg>