<svg width="145" height="40" viewBox="0 0 145 40" fill="none" xmlns="http://www.w3.org/2000/svg">
<path d="M7.36198 19.9653L4.07753 24.4965L0.793091 19.9653L4.07753 15.4398L7.36198 19.9653ZM15.2983 9.03356L20.8899 16.7824L24.1743 12.2512L15.2983 0L6.3972 12.2338L9.68164 16.7824L15.2983 9.03356ZM26.5065 15.4745L23.2263 20.0058L26.5065 24.537L29.791 20.0058L26.5065 15.4745ZM15.2983 30.9433L9.68164 23.206L6.3972 27.7373L15.2983 40L24.1869 27.7373L20.9024 23.206L15.2983 30.9433ZM15.2983 24.4965L18.5828 19.9653L15.2983 15.4398L12.0139 19.9653L15.2983 24.4965ZM49.8332 24.9248V24.8495C49.8332 21.9213 48.7006 20.434 46.8592 19.4618C47.5014 19.0356 48.0409 18.3629 48.4129 17.5242C48.7849 16.6856 48.9737 15.7167 48.9565 14.7338V14.6586C48.9565 11.2211 46.9473 8.99306 43.7174 8.99306H36.3179V30.9028H43.8684C47.4716 30.9433 49.8206 28.9352 49.8206 24.9248H49.8332ZM45.4623 15.5556C45.4623 17.1933 44.4976 17.8704 42.9455 17.8704H39.7198V13.2407H43.1721C44.6444 13.2407 45.4665 14.0625 45.4665 15.5035L45.4623 15.5556ZM46.3684 24.3403C46.3684 25.9838 45.433 26.7245 43.9061 26.7245H39.745V21.8808H43.7929C45.5756 21.8808 46.3684 22.7778 46.3684 24.265V24.3403ZM57.153 30.9433V9.03356H53.642V30.9433H57.153ZM75.9452 30.9433V9.03356H72.4929V22.5694L65.0474 9.03356H61.8216V30.9433H65.2739V16.9965L72.9753 30.9433H75.9452ZM95.3078 30.9433L88.4873 8.87731H85.2616L78.4368 30.9433H81.9939L83.4495 26.0417H90.161L91.6039 30.9664L95.3078 30.9433ZM88.9697 21.765H84.7498L86.8723 14.6586L88.9697 21.765ZM111.982 30.9433V9.03356H108.525V22.5694L101.084 9.03356H97.854V30.9433H101.31V16.9965L109.008 30.9433H111.982ZM130.04 27.3843L127.804 24.3056C126.546 25.8681 125.455 26.8866 123.609 26.8866C120.891 26.8866 118.995 23.7616 118.995 20.0116V19.9363C118.995 16.1863 120.921 13.1019 123.609 13.1019C125.195 13.1019 126.441 14.0394 127.687 15.5613L129.922 12.0081C128.45 10.0174 126.667 8.61111 123.668 8.61111C122.579 8.57354 121.495 8.83992 120.482 9.39429C119.469 9.94866 118.548 10.7796 117.773 11.8372C116.999 12.8949 116.387 14.1574 115.975 15.5491C115.563 16.9409 115.359 18.4331 115.375 19.9363V20.0116C115.356 21.4966 115.553 22.9719 115.956 24.3496C116.358 25.7273 116.957 26.9795 117.717 28.0316C118.476 29.0838 119.382 29.9144 120.379 30.4743C121.376 31.0341 122.445 31.3117 123.521 31.2905C126.588 31.331 128.4 29.809 130.04 27.3843ZM144.931 30.9433V26.6204H136.294V21.9907H143.798V17.7431H136.294V13.3102H144.818V8.99306H132.842V30.9028H144.914L144.931 30.9433Z" fill="#767494"/>
</svg>
