<svg width="161" height="26" viewBox="0 0 161 26" fill="none" xmlns="http://www.w3.org/2000/svg">
<g clip-path="url(#clip0_4_1003)">
<path d="M137.556 25.5464C137.582 25.5831 137.599 25.6291 137.606 25.6787C137.612 25.7284 137.607 25.7794 137.592 25.8255C137.577 25.8717 137.552 25.9109 137.521 25.9383C137.489 25.9657 137.452 25.9801 137.415 25.9797H133.156C133.129 25.9796 133.103 25.9723 133.079 25.9584C133.055 25.9444 133.033 25.924 133.014 25.8985L127.354 17.9021L121.633 25.9188C121.594 25.9656 121.544 25.9921 121.492 25.9932H117.233C117.195 25.9936 117.158 25.9792 117.127 25.9518C117.095 25.9244 117.07 25.8852 117.055 25.8391C117.04 25.793 117.035 25.7419 117.042 25.6923C117.048 25.6427 117.065 25.5966 117.091 25.5599L124.896 14.6115L117.354 3.97449C117.327 3.93811 117.308 3.89147 117.301 3.84067C117.293 3.78987 117.297 3.73727 117.313 3.68974C117.328 3.64221 117.354 3.60196 117.386 3.57425C117.419 3.54653 117.457 3.53264 117.496 3.53439H121.755C121.781 3.53325 121.808 3.53993 121.832 3.55397C121.857 3.56801 121.879 3.58906 121.896 3.61564L127.314 11.3276L132.751 3.62241C132.769 3.59583 132.791 3.57478 132.815 3.56074C132.84 3.5467 132.866 3.54002 132.893 3.54116H137.152C137.19 3.53941 137.229 3.5533 137.261 3.58102C137.294 3.60873 137.319 3.64898 137.335 3.69651C137.35 3.74404 137.354 3.79664 137.347 3.84744C137.34 3.89824 137.321 3.94488 137.293 3.98126L129.777 14.6115L137.556 25.5464Z" fill="#767494"/>
<path d="M97.1771 25.9932C97.106 25.9932 97.0378 25.9554 96.9875 25.8881C96.9372 25.8208 96.909 25.7295 96.909 25.6344V3.87967C96.909 3.78449 96.9372 3.69322 96.9875 3.62592C97.0378 3.55862 97.106 3.52081 97.1771 3.52081H113.267C113.339 3.5208 113.407 3.55839 113.458 3.6255C113.51 3.69261 113.539 3.78387 113.54 3.87967V6.99425C113.539 7.09004 113.51 7.18131 113.458 7.24842C113.407 7.31553 113.339 7.35312 113.267 7.3531H100.809V12.3567H108.28C108.351 12.3567 108.419 12.3946 108.469 12.4619C108.52 12.5292 108.548 12.6204 108.548 12.7156V15.8302C108.548 15.9254 108.52 16.0166 108.469 16.0839C108.419 16.1512 108.351 16.189 108.28 16.189H100.809V21.7614H113.429C113.501 21.7614 113.569 21.799 113.62 21.8661C113.671 21.9332 113.701 22.0245 113.702 22.1203V25.6208C113.702 25.6685 113.695 25.7157 113.681 25.7597C113.667 25.8037 113.647 25.8436 113.622 25.877C113.596 25.9104 113.566 25.9367 113.533 25.9543C113.5 25.972 113.465 25.9806 113.429 25.9797L97.1771 25.9932Z" fill="#767494"/>
<path d="M68.6844 25.9932C68.6488 25.9941 68.6134 25.9855 68.5803 25.9679C68.5471 25.9502 68.517 25.9239 68.4916 25.8905C68.4661 25.8571 68.4459 25.8173 68.4321 25.7733C68.4184 25.7293 68.4112 25.6821 68.4113 25.6344V3.87967C68.4126 3.78387 68.4419 3.69261 68.493 3.6255C68.5441 3.55839 68.6128 3.5208 68.6844 3.52081H72.0481C72.1192 3.52081 72.1874 3.55862 72.2377 3.62592C72.2879 3.69322 72.3162 3.78449 72.3162 3.87967V25.6344C72.3162 25.7295 72.2879 25.8208 72.2377 25.8881C72.1874 25.9554 72.1192 25.9932 72.0481 25.9932H68.6844Z" fill="#767494"/>
<path d="M49.5544 25.9932C49.5188 25.9941 49.4834 25.9855 49.4503 25.9679C49.4171 25.9502 49.387 25.9239 49.3616 25.8905C49.3361 25.8571 49.3159 25.8173 49.3021 25.7733C49.2884 25.7293 49.2813 25.6821 49.2813 25.6344V3.87967C49.2826 3.78387 49.312 3.69261 49.363 3.6255C49.4141 3.55839 49.4828 3.5208 49.5544 3.52081H65.4472C65.5188 3.5208 65.5875 3.55839 65.6385 3.6255C65.6896 3.69261 65.719 3.78387 65.7203 3.87967V7.0755C65.7203 7.17247 65.6915 7.26547 65.6403 7.33404C65.5891 7.4026 65.5196 7.44113 65.4472 7.44113H53.1862V13.3588H59.9742C60.0458 13.3588 60.1145 13.3964 60.1656 13.4635C60.2167 13.5306 60.2461 13.6219 60.2474 13.7177V17.1031C60.2461 17.1989 60.2167 17.2902 60.1656 17.3573C60.1145 17.4244 60.0458 17.462 59.9742 17.462H53.1862V25.6344C53.1862 25.6821 53.1791 25.7293 53.1653 25.7733C53.1515 25.8173 53.1313 25.8571 53.1059 25.8905C53.0804 25.9239 53.0503 25.9502 53.0172 25.9679C52.9841 25.9855 52.9487 25.9941 52.913 25.9932H49.5544Z" fill="#767494"/>
<path d="M39.1143 7.54269V25.6344C39.115 25.6817 39.1086 25.7288 39.0953 25.7728C39.0821 25.8167 39.0624 25.8566 39.0374 25.8902C39.0123 25.9237 38.9825 25.9501 38.9497 25.9678C38.9168 25.9855 38.8817 25.9941 38.8463 25.9932H35.4826C35.4115 25.9932 35.3433 25.9554 35.293 25.8881C35.2427 25.8208 35.2145 25.7295 35.2145 25.6344V7.54269H28.0471C28.0114 7.5427 27.9762 7.53319 27.9433 7.51474C27.9104 7.49628 27.8807 7.46924 27.8557 7.4352C27.8307 7.40116 27.8111 7.36079 27.7979 7.31647C27.7848 7.27215 27.7783 7.22476 27.779 7.17706V3.87967C27.779 3.78449 27.8072 3.69322 27.8575 3.62592C27.9078 3.55862 27.976 3.52081 28.0471 3.52081H46.3172C46.3883 3.52081 46.4565 3.55862 46.5067 3.62592C46.557 3.69322 46.5853 3.78449 46.5853 3.87967V7.16352C46.5853 7.25933 46.5572 7.35132 46.5071 7.41969C46.4569 7.48807 46.3887 7.52737 46.3172 7.52915L39.1143 7.54269Z" fill="#767494"/>
<path d="M21.4462 25.9932C21.3751 25.9932 21.3069 25.9554 21.2566 25.8881C21.2063 25.8208 21.1781 25.7295 21.1781 25.6344V3.87967C21.1781 3.78449 21.2063 3.69322 21.2566 3.62592C21.3069 3.55862 21.3751 3.52081 21.4462 3.52081H24.8098C24.8796 3.52426 24.9458 3.56338 24.9947 3.63013C25.0437 3.69687 25.0716 3.78617 25.0729 3.87967V25.6344C25.0729 25.6821 25.0658 25.7293 25.052 25.7733C25.0382 25.8173 25.018 25.8571 24.9926 25.8905C24.9671 25.9239 24.937 25.9502 24.9039 25.9679C24.8708 25.9855 24.8354 25.9941 24.7997 25.9932H21.4462Z" fill="#767494"/>
<path fill-rule="evenodd" clip-rule="evenodd" d="M0.206906 3.87967C0.206906 3.78449 0.235155 3.69322 0.28543 3.62592C0.335705 3.55862 0.403888 3.52081 0.474988 3.52081H14.8452C15.7749 3.52081 16.6665 4.01517 17.3239 4.89512C17.9812 5.77508 18.3506 6.96856 18.3506 8.213V9.70935C18.3506 10.9538 17.9812 12.1473 17.3239 13.0272C16.6665 13.9072 15.7749 14.4015 14.8452 14.4015H14.9565C15.4207 14.3953 15.8811 14.5124 16.3112 14.7463C16.7412 14.9801 17.1323 15.326 17.4617 15.7637C17.7911 16.2015 18.0522 16.7225 18.23 17.2965C18.4078 17.8704 18.4986 18.4859 18.4972 19.1073V21.3078C18.4973 21.9277 18.4054 22.5414 18.227 23.1134C18.0486 23.6854 17.7871 24.2044 17.4578 24.6402C17.1285 25.076 16.7378 25.42 16.3084 25.6522C15.8791 25.8845 15.4196 26.0004 14.9565 25.9932H0.474988C0.403888 25.9932 0.335705 25.9554 0.28543 25.8881C0.235155 25.8208 0.206906 25.7295 0.206906 25.6344V3.87967ZM4.041 7.17706H13.1457C13.575 7.17706 13.9867 7.40534 14.2902 7.81166C14.5938 8.21799 14.7643 8.76909 14.7643 9.34373V10.3797C14.7643 10.9543 14.5938 11.5054 14.2902 11.9117C13.9867 12.3181 13.575 12.5463 13.1457 12.5463H4.041V7.17706ZM4.041 16.2297H13.2216C13.6509 16.2297 14.0626 16.4579 14.3661 16.8643C14.6697 17.2706 14.8402 17.8217 14.8402 18.3963V19.7505C14.8402 20.0347 14.7983 20.3161 14.7169 20.5786C14.6355 20.8411 14.5162 21.0795 14.3658 21.2802C14.2154 21.4808 14.037 21.6398 13.8406 21.7479C13.6443 21.8561 13.4339 21.9113 13.2216 21.9104H4.041V16.2297Z" fill="#767494"/>
<path d="M75.0122 25.6344V3.87967C75.0122 3.78449 75.0404 3.69322 75.0907 3.62592C75.141 3.55862 75.2092 3.52081 75.2803 3.52081H77.5767C77.6416 3.52104 77.7044 3.55225 77.7537 3.60883L90.6975 18.9515V3.87967C90.6989 3.78387 90.7282 3.69261 90.7793 3.6255C90.8304 3.55839 90.8991 3.5208 90.9707 3.52081H93.9398C94.0114 3.5208 94.0801 3.55839 94.1312 3.6255C94.1823 3.69261 94.2117 3.78387 94.213 3.87967V25.6344C94.213 25.6821 94.2059 25.7293 94.1921 25.7733C94.1783 25.8172 94.1581 25.8571 94.1327 25.8905C94.1072 25.9239 94.0771 25.9502 94.044 25.9679C94.0109 25.9855 93.9755 25.9941 93.9398 25.9932H91.6485C91.5817 25.9953 91.5168 25.9639 91.4664 25.9052L78.5225 10.5286V25.6344C78.5225 25.7295 78.4943 25.8208 78.444 25.8881C78.3937 25.9554 78.3256 25.9932 78.2545 25.9932H75.2803C75.2092 25.9932 75.141 25.9554 75.0907 25.8881C75.0404 25.8208 75.0122 25.7295 75.0122 25.6344Z" fill="#767494"/>
<path d="M140.799 16.9536C140.756 14.9133 141.034 12.8837 141.613 10.9957C142.192 9.10761 143.061 7.40299 144.162 5.99165C149.337 -0.928144 160.106 0.0400832 160.166 0.046854C160.126 0.107792 152.266 15.3896 142.928 16.8182C142.221 16.9233 141.51 16.9686 140.799 16.9536Z" fill="#767494"/>
<path d="M141.917 21.6599C142.187 22.2336 142.504 22.765 142.862 23.2443C146.059 27.5235 151.826 26.7245 155.751 21.4703C160.94 14.5302 160.192 0.0474243 160.192 0.0474243C160.192 0.0474243 154.522 17.0693 145.548 20.7662C144.368 21.2539 143.149 21.5539 141.917 21.6599Z" fill="#767494"/>
</g>
<defs>
<clipPath id="clip0_4_1003">
<rect width="160" height="26" fill="white" transform="translate(0.206909)"/>
</clipPath>
</defs>
</svg>
