<svg width="126" height="32" viewBox="0 0 126 32" fill="none" xmlns="http://www.w3.org/2000/svg">
<g clip-path="url(#clip0_14_398)">
<path d="M25.4335 8.95316C24.3679 8.92448 23.3093 9.20412 22.3209 9.77535C21.3326 10.3466 20.4347 11.1977 19.6811 12.2777C18.9276 13.3577 18.3337 14.6445 17.9352 16.061C17.5366 17.4775 17.3415 18.9947 17.3615 20.5218C17.3615 27.1361 20.8184 32.0352 25.4335 32.0352C30.0485 32.0352 33.5827 27.0506 33.5827 20.4665C33.5827 13.8824 30.1258 8.95316 25.4335 8.95316ZM25.4651 27.2518C22.8785 27.2518 20.9834 24.3747 20.9834 20.5118C20.9834 16.6489 22.8504 13.7265 25.4335 13.7265C28.0165 13.7265 29.9468 16.6438 29.9468 20.5118C29.9468 24.3798 28.0692 27.2317 25.4651 27.2317V27.2518ZM34.5899 13.983H36.8431V31.5876H40.4509V9.36561H34.5759L34.5899 13.983ZM8.26822 13.7215C9.15548 13.7079 10.0219 14.1069 10.7376 14.8587C11.4532 15.6104 11.9795 16.6745 12.2375 17.8912H16.0559C15.354 12.5646 12.2972 8.95316 8.2998 8.95316C7.2344 8.92519 6.176 9.20531 5.18784 9.77678C4.19968 10.3483 3.30205 11.1994 2.54857 12.2792C1.7951 13.3591 1.20124 14.6456 0.802495 16.0618C0.40375 17.478 0.208298 18.9949 0.227816 20.5218C0.227816 27.1361 3.68473 32.0302 8.2998 32.0302C12.2095 32.0302 15.3365 28.4238 16.0208 23.0519H12.2305C11.9845 24.2742 11.466 25.3474 10.7543 26.1076C10.0426 26.8679 9.17686 27.2733 8.28928 27.2619C5.67465 27.2619 3.83916 24.3848 3.83916 20.5218C3.83916 16.6589 5.65009 13.7014 8.26471 13.7014L8.26822 13.7215ZM103.139 18.364L100.492 17.8057C99.229 17.5492 98.327 16.9456 98.327 15.5272C98.327 13.983 99.4992 13.2084 101.093 13.2084C102.847 13.2084 103.949 14.2798 104.192 16.0453H107.68C107.287 11.5737 104.872 8.95819 101.184 8.95819C97.3654 8.95819 94.8385 11.7498 94.8385 15.6982C94.8385 19.4807 96.495 21.6737 99.8291 22.3577L102.472 22.8959C103.767 23.1525 104.486 23.9019 104.486 25.26C104.486 27.0204 103.226 27.7749 101.482 27.7749C99.3448 27.7749 98.1445 26.5275 97.9726 24.6413H94.3998C94.7332 28.9771 97.1057 32.0252 101.419 32.0252C105.36 32.0252 107.975 29.4499 107.975 25.0236C108.006 21.05 106.111 19.0129 103.135 18.3439L103.139 18.364ZM38.6399 0.256522C38.1912 0.267425 37.7547 0.468105 37.3852 0.833363C37.0158 1.19862 36.7298 1.71218 36.5633 2.30954C36.3969 2.90691 36.3572 3.56146 36.4494 4.191C36.5416 4.82054 36.7615 5.397 37.0816 5.84802C37.4016 6.29903 37.8075 6.60449 38.2482 6.72602C38.6889 6.84756 39.1449 6.77976 39.5589 6.53115C39.9728 6.28253 40.3263 5.86418 40.5749 5.32862C40.8235 4.79306 40.9562 4.16416 40.9563 3.52091C40.9666 3.08121 40.9136 2.64317 40.8005 2.23417C40.6874 1.82517 40.5167 1.45399 40.299 1.14385C40.0813 0.833703 39.8212 0.591254 39.5352 0.431655C39.2491 0.272056 38.9432 0.198739 38.6364 0.216284L38.6399 0.256522ZM91.5922 16.9657C91.5922 12.1572 89.5461 8.91795 85.2153 8.91795C81.1267 8.91795 78.8419 11.8805 78.3892 16.4326H81.969C82.1515 14.6721 83.1131 13.2135 85.1556 13.2135C86.9911 13.2135 87.8931 14.3703 87.8931 15.7887C87.8931 17.6347 86.2401 18.1075 84.194 18.4093C81.4285 18.8368 77.9996 20.215 77.9996 25.3656C77.9996 29.3895 80.0773 31.9396 83.3833 31.9396C85.9699 31.9396 87.5948 30.3955 88.4055 27.9459C88.5248 30.1339 89.6689 31.5523 91.2623 31.5523H93.368V26.9752H91.5922V16.9657ZM88.0405 22.5338C88.0405 25.4964 86.2366 27.6894 84.0396 27.6894C82.6849 27.6894 81.5443 26.8695 81.5443 25.1745C81.5443 22.9815 83.3798 22.3829 85.0539 22.1264C86.6788 21.9101 87.5807 21.392 88.0335 20.4062L88.0405 22.5338ZM68.8853 8.95316C67.9509 8.9363 67.0256 9.21673 66.1759 9.77426C65.3263 10.3318 64.5736 11.1525 63.9719 12.1773V0H60.3746V31.5876H63.9228V28.6652C64.518 29.7273 65.2742 30.5811 66.1341 31.1615C66.994 31.742 67.9349 32.0339 68.8853 32.0151C73.2161 32.0151 76.4941 27.121 76.4941 20.5068C76.4941 13.8925 73.1565 8.95316 68.8853 8.95316ZM68.3449 27.2518C65.7583 27.2518 63.8631 24.3747 63.8631 20.5118C63.8631 16.6489 65.7864 13.7265 68.3729 13.7265C70.9595 13.7265 72.8231 16.6036 72.8231 20.5118C72.8231 24.42 70.9314 27.2317 68.3449 27.2317V27.2518ZM51.7446 8.95316C49.4003 8.95316 47.8841 10.3263 46.9646 12.2628V9.36561H43.3849V31.5876H46.9927V19.5159C46.9927 16.1207 48.4983 13.7164 50.7234 13.7164C52.7975 13.7164 54.089 15.824 54.089 18.8721V31.5876H57.6969V18.5099C57.7004 12.8865 55.6859 8.95316 51.7446 8.95316ZM125.207 19.7623C125.207 13.4046 121.957 8.93807 117.598 8.93807C112.969 8.93807 109.568 13.9176 109.568 20.5068C109.568 27.4228 113.208 32.0151 117.64 32.0151C121.399 32.0151 124.347 28.8362 125.098 24.3295H121.357C120.816 26.3062 119.493 27.4228 117.717 27.4228C115.401 27.4228 113.657 25.3606 113.267 21.7491H125.2V19.7623H125.207ZM113.478 18.0421C114.05 14.9488 115.675 13.4448 117.538 13.4448C119.581 13.4448 121.146 15.1198 121.508 18.0421H113.478Z" fill="#767494"/>
</g>
<defs>
<clipPath id="clip0_14_398">
<rect width="125" height="32" fill="white" transform="translate(0.206909)"/>
</clipPath>
</defs>
</svg>
