<svg width="127" height="32" viewBox="0 0 127 32" fill="none" xmlns="http://www.w3.org/2000/svg">
<g clip-path="url(#clip0_14_400)">
<mask id="mask0_14_400" style="mask-type:luminance" maskUnits="userSpaceOnUse" x="0" y="0" width="132" height="32">
<path d="M131.368 0H0.206909V32H131.368V0Z" fill="white"/>
</mask>
<g mask="url(#mask0_14_400)">
<path fill-rule="evenodd" clip-rule="evenodd" d="M46.5396 8.24732V17.4321H35.9556V9.42675C35.9556 9.2715 35.9199 9.11778 35.8504 8.9744C35.781 8.83102 35.6792 8.70081 35.5509 8.59124C35.4226 8.48166 35.2703 8.39488 35.1028 8.33586C34.9352 8.27684 34.7558 8.24675 34.5747 8.24732H31.0316V30.138C31.0329 30.4512 31.179 30.7511 31.4378 30.9722C31.6966 31.1933 32.0471 31.3174 32.4125 31.3174H35.9808V21.1389H46.5648V30.138C46.5662 30.4512 46.7123 30.7511 46.9711 30.9722C47.2299 31.1933 47.5804 31.3174 47.9458 31.3174H51.5141V9.42675C51.5141 9.11394 51.3691 8.81395 51.1111 8.59277C50.8531 8.37158 50.5031 8.24732 50.1382 8.24732H46.5396Z" fill="#767494"/>
<path fill-rule="evenodd" clip-rule="evenodd" d="M67.3196 13.6865V24.621C67.3253 25.1104 67.1812 25.5925 66.9018 26.0193C66.6223 26.4461 66.2173 26.8026 65.7269 27.0533C65.1714 27.3624 64.5291 27.5377 63.8674 27.561C63.2057 27.5843 62.5488 27.4547 61.9656 27.1857C61.3823 26.9167 60.8942 26.5183 60.5522 26.0322C60.2102 25.546 60.0269 24.99 60.0216 24.4223V14.8659C60.0216 14.7111 59.9861 14.5577 59.9169 14.4146C59.8478 14.2715 59.7464 14.1415 59.6186 14.032C59.4909 13.9224 59.3392 13.8356 59.1723 13.7763C59.0053 13.717 58.8264 13.6865 58.6457 13.6865H55.0573V24.8111C55.0639 26.5364 55.8671 28.1893 57.2913 29.4085C58.7155 30.6277 60.6448 31.314 62.6576 31.3174H64.6736C66.685 31.3128 68.6125 30.6259 70.0348 29.4067C71.4571 28.1876 72.2585 26.5353 72.2638 24.8111V14.8746C72.2625 14.5614 72.1164 14.2614 71.8575 14.0403C71.5987 13.8193 71.2482 13.6952 70.8828 13.6952L67.3196 13.6865Z" fill="#767494"/>
<path fill-rule="evenodd" clip-rule="evenodd" d="M122.346 31.3174H125.915V15.8337C125.914 15.6788 125.878 15.5255 125.808 15.3827C125.738 15.2398 125.636 15.1101 125.508 15.001C125.38 14.8918 125.228 14.8054 125.061 14.7467C124.893 14.688 124.714 14.658 124.534 14.6586H120.965V30.1423C120.968 30.4548 121.115 30.7536 121.373 30.9738C121.632 31.1939 121.982 31.3174 122.346 31.3174Z" fill="#767494"/>
<path fill-rule="evenodd" clip-rule="evenodd" d="M123.44 12.9737C123.986 12.9737 124.521 12.8347 124.975 12.5744C125.429 12.3141 125.783 11.9441 125.992 11.5112C126.201 11.0783 126.255 10.6021 126.148 10.1427C126.041 9.68337 125.778 9.26153 125.391 8.9306C125.004 8.59968 124.512 8.37454 123.976 8.28367C123.44 8.19281 122.884 8.24031 122.38 8.42017C121.875 8.60002 121.444 8.90414 121.141 9.29404C120.838 9.68394 120.677 10.1421 120.678 10.6105C120.678 10.9212 120.75 11.2289 120.888 11.5159C121.027 11.8029 121.231 12.0636 121.487 12.2831C121.744 12.5026 122.048 12.6765 122.383 12.795C122.718 12.9136 123.078 12.9743 123.44 12.9737Z" fill="#767494"/>
<path fill-rule="evenodd" clip-rule="evenodd" d="M89.677 23.999C89.677 26.1029 87.661 27.5027 85.2166 27.5027C82.7722 27.5027 80.7512 26.1029 80.7512 23.999V20.9748C80.7512 18.8708 82.7672 17.4711 85.2166 17.4711C87.666 17.4711 89.677 18.8708 89.677 20.9748V23.999ZM85.2166 13.6736C80.0254 13.6736 75.7767 16.8576 75.7767 21.3031V23.7311C75.7767 28.1766 80.0254 31.339 85.2166 31.339C90.4078 31.339 94.6515 28.1766 94.6515 23.7311V21.3031C94.6515 16.8576 90.4078 13.6736 85.2166 13.6736Z" fill="#767494"/>
<path fill-rule="evenodd" clip-rule="evenodd" d="M112.14 23.999C112.14 26.1029 110.124 27.5027 107.68 27.5027C105.235 27.5027 103.214 26.1029 103.214 23.999V20.9748C103.214 18.8708 105.23 17.4711 107.68 17.4711C110.129 17.4711 112.14 18.8708 112.14 20.9748V23.999ZM107.68 13.6736C106.125 13.6622 104.589 13.9578 103.189 14.5376V9.40951C103.189 9.25406 103.153 9.10013 103.084 8.95651C103.015 8.8129 102.913 8.6824 102.785 8.57248C102.656 8.46256 102.504 8.37536 102.337 8.31588C102.169 8.25639 101.99 8.22577 101.808 8.22577H98.2399V23.7311C98.2399 28.1766 102.489 31.339 107.68 31.339C112.871 31.339 117.115 28.155 117.115 23.7311V21.3031C117.115 16.8576 112.871 13.6736 107.68 13.6736Z" fill="#767494"/>
<path fill-rule="evenodd" clip-rule="evenodd" d="M16.1986 9.84584C16.1986 5.25343 13.5879 1.30041 11.6021 0.0129765C11.6021 0.0129765 11.4459 -0.0604666 11.461 0.125304C11.2997 8.99907 6.00771 11.4011 3.09963 14.6413C-3.61365 22.1153 2.6309 30.3108 8.98634 31.8272C12.5395 32.6912 8.16482 30.3238 7.60034 25.3468C6.9149 19.3806 16.1986 14.8055 16.1986 9.84584Z" fill="#767494"/>
<path fill-rule="evenodd" clip-rule="evenodd" d="M19.248 12.8657C19.2077 12.8657 19.1523 12.8268 19.1119 12.8657C19.0011 13.9846 17.6705 16.3737 15.9821 18.5641C10.2567 26.0078 13.5226 29.5936 15.3571 31.5248C16.4206 32.6437 15.3571 31.5248 18.0183 30.3799C19.6379 29.538 21.0017 28.379 21.9978 26.998C22.9939 25.617 23.5939 24.0532 23.7487 22.435C23.9194 20.6497 23.6014 18.8549 22.82 17.1936C22.0386 15.5323 20.8155 14.0503 19.248 12.8657Z" fill="#767494"/>
</g>
</g>
<defs>
<clipPath id="clip0_14_400">
<rect width="126" height="32" fill="white" transform="translate(0.206909)"/>
</clipPath>
</defs>
</svg>
