<svg width="129" height="28" viewBox="0 0 129 28" fill="none" xmlns="http://www.w3.org/2000/svg">
<g clip-path="url(#clip0_4_1001)">
<path d="M13.154 1.13403C11.5486 1.13403 9.95886 1.55302 8.47568 2.36706C6.9925 3.1811 5.6449 4.37424 4.50985 5.87835C3.37479 7.38245 2.47452 9.16805 1.86046 11.1332C1.2464 13.0983 0.930582 15.2044 0.931031 17.3312V24.2741C0.931031 24.8883 1.1152 25.4774 1.44303 25.9117C1.77086 26.346 2.2155 26.5899 2.67912 26.5899C3.14274 26.5899 3.58737 26.346 3.91521 25.9117C4.24304 25.4774 4.4272 24.8883 4.4272 24.2741V17.3312C4.4272 16.7182 4.61102 16.1303 4.93821 15.6969C5.2654 15.2634 5.70916 15.0199 6.17188 15.0199C6.6346 15.0199 7.07836 15.2634 7.40555 15.6969C7.73274 16.1303 7.91655 16.7182 7.91655 17.3312V24.2741C7.93645 24.87 8.12914 25.4328 8.45447 25.8451C8.7798 26.2575 9.21269 26.4876 9.66294 26.4876C10.1132 26.4876 10.5461 26.2575 10.8714 25.8451C11.1967 25.4328 11.3894 24.87 11.4093 24.2741V17.3312C11.3989 17.0188 11.4363 16.7068 11.5194 16.414C11.6025 16.1213 11.7294 15.8539 11.8926 15.6279C12.0558 15.402 12.2518 15.2221 12.4689 15.0993C12.686 14.9764 12.9196 14.9131 13.1557 14.9131C13.3918 14.9131 13.6254 14.9764 13.8425 15.0993C14.0596 15.2221 14.2556 15.402 14.4188 15.6279C14.582 15.8539 14.7089 16.1213 14.792 16.414C14.8751 16.7068 14.9125 17.0188 14.9021 17.3312V24.2741C14.9021 24.8871 15.0859 25.475 15.4131 25.9085C15.7403 26.3419 16.184 26.5854 16.6468 26.5854C17.1095 26.5854 17.5532 26.3419 17.8804 25.9085C18.2076 25.475 18.3914 24.8871 18.3914 24.2741V17.3312C18.3914 16.717 18.5756 16.128 18.9034 15.6937C19.2313 15.2594 19.6759 15.0154 20.1395 15.0154C20.6031 15.0154 21.0478 15.2594 21.3756 15.6937C21.7034 16.128 21.8876 16.717 21.8876 17.3312V24.2741C21.8876 24.8871 22.0714 25.475 22.3986 25.9085C22.7258 26.3419 23.1696 26.5854 23.6323 26.5854C24.095 26.5854 24.5388 26.3419 24.866 25.9085C25.1931 25.475 25.377 24.8871 25.377 24.2741V17.3312C25.3774 15.2044 25.0616 13.0983 24.4475 11.1332C23.8335 9.16805 22.9332 7.38245 21.7981 5.87835C20.6631 4.37424 19.3155 3.1811 17.8323 2.36706C16.3491 1.55302 14.7594 1.13403 13.154 1.13403Z" fill="#767494"/>
<path d="M28.122 1.13861H31.2255V11.9443L39.5017 1.13861H43.6261L36.2445 10.5964L44.0392 26.5764H39.9148L33.875 13.6314L31.2255 17.0282V26.581H28.122V1.13861Z" fill="#767494"/>
<path d="M45.719 1.13859H48.7918V5.53051C49.0422 4.67414 49.6579 3.63383 50.6389 2.40958C51.5401 1.22416 52.7593 0.560524 54.0292 0.564163C54.0873 0.564163 54.1897 0.564162 54.3331 0.5913C54.4765 0.618439 54.7189 0.636531 55.0672 0.686285V5.20937C54.8925 5.16264 54.7157 5.13092 54.5379 5.11438C54.3775 5.11438 54.1965 5.09177 54.0122 5.09177C52.3824 5.09177 51.1305 5.7838 50.2565 7.16786C49.3964 8.5 48.9305 10.2004 48.9454 11.9533V26.59H45.719V1.13859Z" fill="#767494"/>
<path d="M67.0887 11.1798C67.8296 11.0577 68.3281 10.6461 68.5773 9.94957C68.7409 9.42892 68.8144 8.86636 68.7924 8.30317C68.7924 6.84221 68.4032 5.78381 67.6213 5.13701C66.8394 4.49021 65.723 4.15098 64.2651 4.15098C62.5808 4.15098 61.388 4.75405 60.687 5.96021C60.2358 6.84586 59.9706 7.87465 59.9188 8.94092H56.904C56.9655 5.8019 57.7325 3.61424 59.2052 2.37793C60.7445 1.12828 62.5215 0.48796 64.3266 0.532511C66.5868 0.532511 68.4191 1.10242 69.8235 2.24224C71.2279 3.38205 71.9266 5.15661 71.9198 7.56591V22.2207C71.9064 22.5962 71.979 22.9683 72.1281 23.2881C72.2601 23.5595 72.5503 23.6952 72.9987 23.6952C73.1421 23.6952 73.3026 23.6952 73.4835 23.659C73.6645 23.6229 73.8557 23.6002 74.0571 23.5505V26.7166C73.6818 26.867 73.2998 26.9864 72.9134 27.074C72.5552 27.1275 72.1949 27.1517 71.8345 27.1463C70.7248 27.1463 69.9157 26.6217 69.4138 25.5768C69.1108 24.8507 68.9226 24.0504 68.8607 23.2248C68.0953 24.482 67.127 25.4959 66.0269 26.192C64.7671 27.0419 63.3707 27.4749 61.9571 27.4539C60.1783 27.4539 58.7204 26.7393 57.5937 25.3054C57.0393 24.6208 56.6005 23.7884 56.3063 22.8631C56.0121 21.9377 55.869 20.9404 55.8866 19.9365C55.8866 17.5785 56.442 15.7512 57.5527 14.4546C58.794 13.0878 60.319 12.252 61.9264 12.0573L67.0887 11.1798ZM60.2943 22.7318C60.9841 23.4469 61.8394 23.824 62.715 23.7992C63.8619 23.7955 64.9923 23.4377 66.0166 22.7544C67.8057 21.5995 68.7013 19.7104 68.7036 17.087V13.6449C68.2309 14.0232 67.7174 14.3039 67.1809 14.4772C66.5817 14.683 65.9725 14.8342 65.3577 14.9295L63.4081 15.2597C62.4923 15.3666 61.599 15.6946 60.7723 16.2276C60.2925 16.569 59.8964 17.0851 59.6308 17.7151C59.3652 18.345 59.2413 19.0625 59.2735 19.7828C59.2526 20.3468 59.3344 20.9091 59.5121 21.4224C59.6898 21.9357 59.9581 22.3848 60.2943 22.7318Z" fill="#767494"/>
<path d="M79.2707 1.13861V11.9443L87.5468 1.13861H91.6678L84.2998 10.5964L92.0945 26.5764H87.9565L81.9099 13.6314L79.2604 17.0282V26.581H76.1569V1.13861H79.2707Z" fill="#767494"/>
<path d="M105.246 1.83513C106.419 2.56874 107.421 3.70593 108.148 5.12793C108.812 6.48742 109.25 8.01849 109.432 9.61935C109.663 11.471 109.759 13.3476 109.719 15.2235H95.7512C95.8127 17.8107 96.2679 19.8867 97.1169 21.4517C97.9705 23.0122 99.2952 23.7992 101.084 23.7992C101.834 23.8409 102.582 23.6636 103.275 23.2798C103.968 22.896 104.588 22.3152 105.093 21.5784C105.652 20.7155 106.057 19.6966 106.277 18.5977H109.453C109.325 19.6986 109.041 20.7575 108.616 21.7186C108.205 22.7619 107.673 23.7128 107.039 24.5365C106.037 25.823 104.783 26.7115 103.42 27.1011C102.561 27.3672 101.682 27.4947 100.801 27.481C99.6669 27.5032 98.5424 27.2066 97.5013 26.611C96.4602 26.0153 95.5263 25.1341 94.7611 24.0254C93.1109 21.7186 92.2858 18.4921 92.2858 14.346C92.2858 10.2631 93.1177 6.94621 94.7816 4.39519C96.4454 1.84417 98.6203 0.568665 101.306 0.568665C102.677 0.57264 104.027 1.00664 105.246 1.83513ZM106.4 11.8266C106.335 10.2798 106.025 8.76825 105.492 7.38947C104.618 5.33298 103.154 4.30322 101.101 4.30021C100.406 4.28162 99.7166 4.46193 99.079 4.82881C98.4415 5.19569 97.8712 5.7405 97.4071 6.42606C96.3934 7.90503 95.829 9.82893 95.8229 11.8266H106.4Z" fill="#767494"/>
<path d="M115.619 1.13856V4.75703C116.391 3.41863 117.377 2.32345 118.507 1.55016C119.565 0.886612 120.724 0.552429 121.894 0.573176C124.625 0.573176 126.467 1.83361 127.418 4.35447C127.944 5.72949 128.207 7.70155 128.207 10.2707V26.5899H124.929V10.5466C124.968 9.25927 124.79 7.97668 124.407 6.79242C123.833 5.21537 122.794 4.42534 121.29 4.42232C120.653 4.39858 120.018 4.50227 119.405 4.72989C118.491 5.10782 117.681 5.83471 117.077 6.81955C116.576 7.56346 116.216 8.45515 116.028 9.42033C115.843 10.6835 115.763 11.9697 115.789 13.2559V26.5809H112.559V1.13856H115.619Z" fill="#767494"/>
</g>
<defs>
<clipPath id="clip0_4_1001">
<rect width="127.276" height="26.9621" fill="white" transform="translate(0.93103 0.518921)"/>
</clipPath>
</defs>
</svg>
