<svg width="97" height="28" viewBox="0 0 97 28" fill="none" xmlns="http://www.w3.org/2000/svg">
<path d="M28.3618 0H0.846797C0.677086 0 0.51433 0.0655526 0.394327 0.182238C0.274325 0.298922 0.206909 0.457182 0.206909 0.6222V27.3767C0.206909 27.5417 0.274325 27.7002 0.394327 27.8169C0.51433 27.9334 0.677086 27.9989 0.846797 27.9989H28.3618C28.5317 27.9989 28.6943 27.9334 28.8145 27.8169C28.9344 27.7002 29.0019 27.5417 29.0019 27.3767V0.6222C29.0019 0.457182 28.9344 0.298922 28.8145 0.182238C28.6943 0.0655526 28.5317 0 28.3618 0ZM19.4035 18.0438C19.4035 18.2088 19.3361 18.3671 19.2161 18.4838C19.0961 18.6004 18.9333 18.666 18.7636 18.666H10.4451C10.2754 18.666 10.1126 18.6004 9.99263 18.4838C9.87263 18.3671 9.8052 18.2088 9.8052 18.0438V9.9552C9.8052 9.79018 9.87263 9.63192 9.99263 9.51524C10.1126 9.39855 10.2754 9.333 10.4451 9.333H18.7636C18.9333 9.333 19.0961 9.39855 19.2161 9.51524C19.3361 9.63192 19.4035 9.79018 19.4035 9.9552V18.0438Z" fill="#767494"/>
<path d="M85.9636 9.33417H77.6449C77.2917 9.33417 77.0051 9.61272 77.0051 9.95637V18.045C77.0051 18.3886 77.2917 18.6672 77.6449 18.6672H85.9636C86.317 18.6672 86.6035 18.3886 86.6035 18.045V9.95637C86.6035 9.61272 86.317 9.33417 85.9636 9.33417Z" fill="#767494"/>
<path d="M76.3673 0.000488281H68.0489C67.6955 0.000488281 67.4091 0.279058 67.4091 0.622688V8.71129C67.4091 9.05492 67.6955 9.3335 68.0489 9.3335H76.3673C76.7208 9.3335 77.0074 9.05492 77.0074 8.71129V0.622688C77.0074 0.279058 76.7208 0.000488281 76.3673 0.000488281Z" fill="#767494"/>
<path d="M95.567 0.000488281H87.2484C86.8952 0.000488281 86.6085 0.279058 86.6085 0.622688V8.71129C86.6085 9.05492 86.8952 9.3335 87.2484 9.3335H95.567C95.9205 9.3335 96.2069 9.05492 96.2069 8.71129V0.622688C96.2069 0.279058 95.9205 0.000488281 95.567 0.000488281Z" fill="#767494"/>
<path d="M76.3673 18.6669H68.0489C67.6955 18.6669 67.4091 18.9455 67.4091 19.2891V27.3778C67.4091 27.7213 67.6955 28 68.0489 28H76.3673C76.7208 28 77.0074 27.7213 77.0074 27.3778V19.2891C77.0074 18.9455 76.7208 18.6669 76.3673 18.6669Z" fill="#767494"/>
<path d="M95.567 18.6669H87.2484C86.8952 18.6669 86.6085 18.9455 86.6085 19.2891V27.3778C86.6085 27.7213 86.8952 28 87.2484 28H95.567C95.9205 28 96.2069 27.7213 96.2069 27.3778V19.2891C96.2069 18.9455 95.9205 18.6669 95.567 18.6669Z" fill="#767494"/>
<path d="M61.9585 0.000488281H53.64C53.2866 0.000488281 52.9999 0.279058 52.9999 0.622688V8.71129C52.9999 9.05492 53.2866 9.3335 53.64 9.3335H61.9585C62.3119 9.3335 62.5983 9.05492 62.5983 8.71129V0.622688C62.5983 0.279058 62.3119 0.000488281 61.9585 0.000488281Z" fill="#767494"/>
<path d="M61.9585 18.6669H53.64C53.2866 18.6669 52.9999 18.9455 52.9999 19.2891V27.3778C52.9999 27.7213 53.2866 28 53.64 28H61.9585C62.3119 28 62.5983 27.7213 62.5983 27.3778V19.2891C62.5983 18.9455 62.3119 18.6669 61.9585 18.6669Z" fill="#767494"/>
<path d="M52.9974 9.9482C52.9974 9.78319 52.9298 9.62492 52.8099 9.50825C52.69 9.39155 52.5272 9.326 52.3575 9.326H43.399V0.6222C43.399 0.457182 43.3315 0.298922 43.2115 0.182238C43.0916 0.0655526 42.9288 0 42.7591 0H34.4407C34.2708 0 34.1082 0.0655526 33.988 0.182238C33.8681 0.298922 33.8006 0.457182 33.8006 0.6222V27.3628C33.8006 27.5278 33.8681 27.686 33.988 27.8028C34.1082 27.9195 34.2708 27.985 34.4407 27.985H42.7591C42.9288 27.985 43.0916 27.9195 43.2115 27.8028C43.3315 27.686 43.399 27.5278 43.399 27.3628V18.659H52.3575C52.5272 18.659 52.69 18.5934 52.8099 18.4768C52.9298 18.3601 52.9974 18.2018 52.9974 18.0368V9.9482Z" fill="#767494"/>
</svg>
